<?xml version="1.0" encoding="UTF-8"?>
<!-- Generator: Adobe Illustrator 18.1.0, SVG Export Plug-In . SVG Version: 6.00 Build 0)  -->
<svg version="1.1" id="Layer_1" xmlns="http://www.w3.org/2000/svg" xmlns:xlink="http://www.w3.org/1999/xlink" x="0px" y="0px" viewBox="0 0 150 150" enable-background="new 0 0 150 150" xml:space="preserve">
<g>
	<path fill="none" d="M116.7,39.7l-3.2,21l8.6-20.6C119.3,38.5,117.5,39.2,116.7,39.7z M119.3,41.1c0,0,1.3-0.9,1.7,0l-4.7,12   L119.3,41.1z"/>
	<path fill="none" d="M68,83.7l5.2,4.7l0.1,0.1l0.1,0.1c0,0,2.2,1.9,8.7-0.8c1.2-0.5,2.9-2,4.2-3.3l-4.6-12.2l-7.6,0h-0.1l-0.1,0   c-2.2-0.1-4.1-0.6-5.8-1.4c0,0,0,0,0,0C70,74.6,69.9,78.9,68,83.7z"/>
	<path fill="none" d="M106.4,27.9l-3,15.6l5.6,19.7l6-39.2C109.2,22.7,106.9,26.9,106.4,27.9z M106.1,48l4.7-22.6   c0,0,2.1-1.3,3.2-0.4L109,58.2L106.1,48z"/>
	<path fill="#BFE2F4" d="M93.3,25c-2.3,0.2-1.6,4.9-1.6,4.9l10.8,38.9l-5.4,3.1l-5.6-12c-2.1,0-2.1,2.1-2.1,2.1L98,82.5l-1.9,42   c8.9-0.7,12-5.2,12-5.2l-2.8-50.9L93.3,25z M110.8,25.5L106.1,48l2.8,10.2l5.1-33.1C112.9,24.1,110.8,25.5,110.8,25.5z M119.3,41.1   l-3,12l4.7-12C120.6,40.1,119.3,41.1,119.3,41.1z"/>
	<path fill="#27628E" d="M111,77.3l15.5-37.2l0.6-1.5l-1.3-0.9c-3.3-2.4-6.2-2.9-8.4-2.5l1.9-12.3l0.2-1.6l-1.6-0.6   c-9-3.3-14,2.3-15.4,5.8l-0.1,0.2l0,0.2l-1.5,8l-4-14.1l-0.6-2l-2,0.7c-4.2,1.4-11.8,6.4-10.9,15.5l0,0.1l0,0.1l4.3,19.2l4-0.9   l-4.2-19.1c-0.5-5.7,3.6-8.9,6.2-10.3l12.7,44.5l0.5,8.3l-0.1,0.3l0.1,0.1l2.4,43.2c-1.7,1.1-6.3,3.6-15.1,5   c-4.5,0.7-8.6,0.3-12-0.5c0.2-2.4,0.6-8.4,0.6-11.7c0-4.2,4.4-7.4,4.4-7.4l1.4-3c0,0-5.1,3.5-9.7,4.8c-1.6,0.5-3,0.5-4.1,0.4   l-4.4-1.9L53.6,92.3L59.3,68c1.7,0.8,4.1,2.2,5.3,4.8c1.3,2.8,1,6.4-0.9,10.6l-0.6,1.4l1.1,1l6.3,5.6c0.8,0.9,4.5,3.9,13.3,0.3   c2.8-1.2,6.1-4.8,6.5-5.2l0.8-0.9l-0.4-1.2l-5.5-14.8l-0.5-1.3l-1.4,0l-9,0.1c-7.1-0.4-9.2-5.9-9.9-9l27.7-0.5l5.1,11l3.7-1.7   l-5.6-12.2l-0.6-1.2l-1.3,0L62,55.3l-2,0l0.1,2c0.1,2,0.6,4.8,2,7.4c-1.9-1-3.5-1.4-3.6-1.4l-2-0.5l-0.5,2l-6.6,27.7l-0.3,1.2   l1,0.8l17.9,14.9l0.2,0.2l0.3,0.1l3.8,1.6L70.3,123l-0.2,1.3l1.2,0.7c0.2,0.1,2,1.2,5,2.3v7.8h4v-6.5c4,1,8.9,1.6,14.4,0.8   c4.4-0.7,7.8-1.7,10.5-2.6v7.4h4V125c2.2-1.1,3.3-2,3.4-2.1l0.7-0.6l-0.1-1l-2.4-43.6l0,0L111,77.3z M74,72.4L74,72.4l0.1,0l7.6,0   l4.6,12.2c-1.3,1.3-3,2.8-4.2,3.3c-6.5,2.7-8.7,0.8-8.7,0.8l-0.1-0.1l-0.1-0.1L68,83.7c1.9-4.8,2-9.1,0.3-12.7c0,0,0,0,0,0   C69.9,71.8,71.8,72.3,74,72.4z M122.1,40.1l-8.6,20.6l3.2-21C117.5,39.2,119.3,38.5,122.1,40.1z M103.4,43.5l3-15.6   c0.5-1,2.8-5.2,8.6-3.8l-6,39.2L103.4,43.5z"/>
	<path fill="#00A8DE" d="M55.4,19c-2.2,16-3.9,17.7-19.9,19.9c16,2.2,17.7,3.9,19.9,19.9c2.2-16,3.9-17.7,19.9-19.9   C59.3,36.8,57.5,35,55.4,19z M37.8,52.2c-1,7.1-1.7,7.9-8.8,8.8c7.1,1,7.9,1.7,8.8,8.8c1-7.1,1.7-7.9,8.8-8.8   C39.6,60.1,38.8,59.3,37.8,52.2z M37.8,31.5c1.1-7.8,1.9-8.6,9.7-9.7c-7.8-1.1-8.6-1.9-9.7-9.7c-1.1,7.8-1.9,8.6-9.7,9.7   C35.9,22.9,36.8,23.7,37.8,31.5z"/>
</g>
</svg>